<?xml version="1.0" encoding="utf-8"?>
<!-- Generator: Adobe Illustrator 24.3.0, SVG Export Plug-In . SVG Version: 6.00 Build 0)  -->
<svg version="1.1" id="Layer_1" xmlns="http://www.w3.org/2000/svg" xmlns:xlink="http://www.w3.org/1999/xlink" x="0px" y="0px"
	 viewBox="0 0 125.6 15.1" style="enable-background:new 0 0 125.6 15.1;" xml:space="preserve">
<style type="text/css">
	.st0{fill:#624F56;}
	.st1{fill:none;stroke:#624F56;stroke-width:0.56;stroke-linecap:round;stroke-miterlimit:10;}
</style>
<path class="st0" d="M4.7,11.2C2.9,11.3,1.3,9.9,1.2,8c0-0.1,0-0.2,0-0.3l0,0c0-1.9,1.5-3.4,3.4-3.4c0,0,0.1,0,0.1,0
	c1-0.1,1.9,0.3,2.6,0.9L6.4,6.4C5.9,5.9,5.3,5.7,4.7,5.7c-1.1,0-1.9,1-1.9,2.1l0,0c-0.1,1.1,0.8,2,1.9,2.1c0,0,0.1,0,0.1,0
	c0.5,0,1-0.1,1.4-0.4v-1H4.7V7.2h2.9v2.9C6.8,10.8,5.8,11.2,4.7,11.2z"/>
<path class="st0" d="M9.3,11.1V4.4h1.5v6.7L9.3,11.1z"/>
<path class="st0" d="M16.2,11.1h-1.3l-2.7-6.7h1.6l1.7,4.7l1.7-4.7h1.6L16.2,11.1z"/>
<path class="st0" d="M20.2,11.1V4.4h1.5v6.7L20.2,11.1z"/>
<path class="st0" d="M28.3,11.1l-3.2-4.2v4.2h-1.4V4.4H25l3.1,4.1V4.4h1.4v6.7L28.3,11.1z"/>
<path class="st0" d="M34.7,11.2c-1.8,0.1-3.4-1.3-3.5-3.2c0-0.1,0-0.2,0-0.2l0,0c0-1.9,1.5-3.4,3.4-3.4c0,0,0.1,0,0.1,0
	c1-0.1,1.9,0.3,2.6,0.9l-0.9,1.1c-0.5-0.4-1.1-0.7-1.7-0.7c-1.1,0-1.9,1-1.9,2.1l0,0c-0.1,1.1,0.8,2,1.9,2.1c0,0,0.1,0,0.1,0
	c0.5,0,1-0.1,1.4-0.4v-1h-1.5V7.2h2.9v2.9C36.7,10.8,35.7,11.2,34.7,11.2z"/>
<path class="st0" d="M42.4,11.1V4.4h1.5v6.7L42.4,11.1z"/>
<path class="st0" d="M48.2,11.2c-1,0-2-0.4-2.8-1.1l0.9-1c0.5,0.5,1.3,0.8,2,0.8c0.6,0,1-0.2,1-0.6l0,0c0-0.4-0.2-0.6-1.3-0.8
	c-1.3-0.3-2.2-0.7-2.2-2l0,0c0-1.1,1-2,2.1-2c0.1,0,0.1,0,0.2,0c0.9,0,1.8,0.3,2.5,0.8l-0.8,1.1C49.2,6,48.6,5.8,48,5.7
	c-0.6,0-0.9,0.3-0.9,0.6l0,0c0,0.4,0.3,0.6,1.4,0.9c1.4,0.3,2.1,0.8,2.1,2l0,0C50.6,10.4,49.6,11.2,48.2,11.2z"/>
<path class="st0" d="M55.4,11.1V4.4h5v1.3h-3.6v1.3h3.1v1.3h-3.1v1.4h3.6v1.3L55.4,11.1z"/>
<path class="st0" d="M62,11.1V4.4h1.5v5.3h3.3v1.3L62,11.1z"/>
<path class="st0" d="M68.2,11.1V4.4h5v1.3h-3.6v1.3h3.1v1.3h-3.1v1.4h3.6v1.3L68.2,11.1z"/>
<path class="st0" d="M80.1,11.1V6.7l-1.9,2.9l0,0l-1.9-2.8v4.3h-1.4V4.4h1.6l1.8,2.8L80,4.4h1.6v6.7L80.1,11.1z"/>
<path class="st0" d="M83.4,11.1V4.4h5v1.3h-3.6v1.3H88v1.3h-3.1v1.4h3.6v1.3L83.4,11.1z"/>
<path class="st0" d="M94.7,11.1l-3.2-4.2v4.2H90V4.4h1.4l3.1,4.1V4.4H96v6.7L94.7,11.1z"/>
<path class="st0" d="M100.9,5.8v5.3h-1.5V5.8h-2V4.4h5.5v1.3H100.9z"/>
<path class="st0" d="M108.4,11.1l-0.6-1.5H105l-0.6,1.5h-1.5l2.9-6.7h1.4l2.9,6.7H108.4z M106.4,6.1l-0.9,2.2h1.8L106.4,6.1z"/>
<path class="st0" d="M115.3,11.1L113.9,9h-1.1v2.1h-1.5V4.4h3c1.6,0,2.5,0.8,2.5,2.2l0,0c0,0.9-0.5,1.8-1.4,2.1l1.6,2.4L115.3,11.1z
	 M115.3,6.7c0-0.6-0.4-1-1.1-1h-1.5v1.9h1.5C114.9,7.6,115.3,7.2,115.3,6.7L115.3,6.7z"/>
<path class="st0" d="M121.5,8.4v2.7H120V8.5l-2.5-4h1.7l1.6,2.7l1.6-2.7h1.7L121.5,8.4z"/>
<line class="st1" x1="0.3" y1="0.3" x2="125.3" y2="0.3"/>
<line class="st1" x1="0.3" y1="14.8" x2="125.3" y2="14.8"/>
</svg>
